<mxfile host="app.diagrams.net" modified="2021-12-18T22:27:46.930Z" agent="5.0 (Macintosh; Intel Mac OS X 10_15_6) AppleWebKit/537.36 (KHTML, like Gecko) Chrome/95.0.4638.69 Safari/537.36" etag="n1VVdUy7aIo_f22MyGdK" version="15.3.2" type="github">
  <diagram id="u0MMfJnpxb5PyBzBqrjG" name="Page-1">
    <mxGraphModel dx="2225" dy="1178" grid="1" gridSize="10" guides="1" tooltips="1" connect="1" arrows="1" fold="1" page="0" pageScale="1" pageWidth="850" pageHeight="1100" math="0" shadow="0">
      <root>
        <mxCell id="0" />
        <mxCell id="1" parent="0" />
        <mxCell id="aYrnTMMzMX6QkwAot3Gi-28" value="&lt;b&gt;Proof of Work (Challenge)&lt;/b&gt;" style="text;html=1;align=center;verticalAlign=middle;resizable=0;points=[];autosize=1;strokeColor=none;fillColor=none;fontColor=#33001A;" vertex="1" parent="1">
          <mxGeometry x="160" y="490" width="160" height="20" as="geometry" />
        </mxCell>
        <mxCell id="aYrnTMMzMX6QkwAot3Gi-47" value="def &lt;b&gt;is_valid&lt;/b&gt;:&lt;br&gt;&amp;nbsp; &amp;nbsp; candidate_hash = generate_hash(nonce, transaction_hash)&lt;br&gt;&amp;nbsp; &amp;nbsp; if begins_with_N_zeros(candidate_hash):&lt;br&gt;&amp;nbsp; &amp;nbsp; &amp;nbsp; &amp;nbsp; return True&lt;br&gt;&amp;nbsp; &amp;nbsp; else:&lt;br&gt;&amp;nbsp; &amp;nbsp; &amp;nbsp; &amp;nbsp; return False" style="text;html=1;align=left;verticalAlign=middle;resizable=0;points=[];autosize=1;strokeColor=none;fillColor=none;fontColor=#33001A;fontFamily=Courier New;" vertex="1" parent="1">
          <mxGeometry x="20" y="680" width="440" height="90" as="geometry" />
        </mxCell>
        <mxCell id="aYrnTMMzMX6QkwAot3Gi-48" value="" style="group" vertex="1" connectable="0" parent="1">
          <mxGeometry x="-30" y="530" width="540" height="115" as="geometry" />
        </mxCell>
        <mxCell id="aYrnTMMzMX6QkwAot3Gi-30" value="Generate Nonce" style="rounded=0;whiteSpace=wrap;html=1;strokeColor=#d6b656;strokeWidth=2;fillColor=#fff2cc;align=center;verticalAlign=middle;fontStyle=1" vertex="1" parent="aYrnTMMzMX6QkwAot3Gi-48">
          <mxGeometry y="40" width="120" height="30" as="geometry" />
        </mxCell>
        <mxCell id="aYrnTMMzMX6QkwAot3Gi-33" value="nonce" style="rounded=1;whiteSpace=wrap;html=1;strokeColor=#d6b656;strokeWidth=2;fillColor=#fff2cc;align=center;verticalAlign=middle;fontStyle=1" vertex="1" parent="aYrnTMMzMX6QkwAot3Gi-48">
          <mxGeometry x="200" y="45" width="50" height="20" as="geometry" />
        </mxCell>
        <mxCell id="aYrnTMMzMX6QkwAot3Gi-32" style="edgeStyle=orthogonalEdgeStyle;rounded=0;orthogonalLoop=1;jettySize=auto;html=1;exitX=1;exitY=0.5;exitDx=0;exitDy=0;fontColor=#33001A;strokeWidth=2;entryX=0;entryY=0.5;entryDx=0;entryDy=0;fillColor=#fff2cc;strokeColor=#d6b656;fontStyle=1" edge="1" parent="aYrnTMMzMX6QkwAot3Gi-48" source="aYrnTMMzMX6QkwAot3Gi-30" target="aYrnTMMzMX6QkwAot3Gi-33">
          <mxGeometry relative="1" as="geometry">
            <mxPoint x="200" y="55.14285714285711" as="targetPoint" />
          </mxGeometry>
        </mxCell>
        <mxCell id="aYrnTMMzMX6QkwAot3Gi-34" value="transaction_hash" style="rounded=1;whiteSpace=wrap;html=1;fontColor=#33001A;strokeColor=#000000;strokeWidth=1;fillColor=none;align=center;verticalAlign=middle;" vertex="1" parent="aYrnTMMzMX6QkwAot3Gi-48">
          <mxGeometry x="140" y="5" width="110" height="20" as="geometry" />
        </mxCell>
        <mxCell id="aYrnTMMzMX6QkwAot3Gi-40" style="edgeStyle=orthogonalEdgeStyle;rounded=0;orthogonalLoop=1;jettySize=auto;html=1;exitX=1;exitY=0.5;exitDx=0;exitDy=0;fontColor=#33001A;strokeWidth=1;" edge="1" parent="aYrnTMMzMX6QkwAot3Gi-48" source="aYrnTMMzMX6QkwAot3Gi-38">
          <mxGeometry relative="1" as="geometry">
            <mxPoint x="420" y="35" as="targetPoint" />
          </mxGeometry>
        </mxCell>
        <mxCell id="aYrnTMMzMX6QkwAot3Gi-41" value="Yes" style="edgeLabel;html=1;align=center;verticalAlign=middle;resizable=0;points=[];fontColor=#33001A;" vertex="1" connectable="0" parent="aYrnTMMzMX6QkwAot3Gi-40">
          <mxGeometry x="-0.325" relative="1" as="geometry">
            <mxPoint as="offset" />
          </mxGeometry>
        </mxCell>
        <mxCell id="aYrnTMMzMX6QkwAot3Gi-42" style="edgeStyle=orthogonalEdgeStyle;rounded=0;orthogonalLoop=1;jettySize=auto;html=1;exitX=0.5;exitY=1;exitDx=0;exitDy=0;entryX=0.5;entryY=1;entryDx=0;entryDy=0;fontColor=#33001A;strokeWidth=2;fillColor=#fff2cc;strokeColor=#d6b656;fontStyle=1" edge="1" parent="aYrnTMMzMX6QkwAot3Gi-48" source="aYrnTMMzMX6QkwAot3Gi-38" target="aYrnTMMzMX6QkwAot3Gi-30">
          <mxGeometry relative="1" as="geometry">
            <Array as="points">
              <mxPoint x="325" y="115" />
              <mxPoint x="60" y="115" />
            </Array>
          </mxGeometry>
        </mxCell>
        <mxCell id="aYrnTMMzMX6QkwAot3Gi-43" value="No" style="edgeLabel;html=1;align=center;verticalAlign=middle;resizable=0;points=[];fontColor=#33001A;" vertex="1" connectable="0" parent="aYrnTMMzMX6QkwAot3Gi-42">
          <mxGeometry x="-0.8918" y="-1" relative="1" as="geometry">
            <mxPoint as="offset" />
          </mxGeometry>
        </mxCell>
        <mxCell id="aYrnTMMzMX6QkwAot3Gi-38" value="is_valid" style="rhombus;whiteSpace=wrap;html=1;strokeColor=#d6b656;strokeWidth=2;fillColor=#fff2cc;align=center;verticalAlign=middle;fontStyle=1" vertex="1" parent="aYrnTMMzMX6QkwAot3Gi-48">
          <mxGeometry x="290" width="70" height="70" as="geometry" />
        </mxCell>
        <mxCell id="aYrnTMMzMX6QkwAot3Gi-44" value="Add to local blockchain" style="rounded=0;whiteSpace=wrap;html=1;fontColor=#33001A;strokeColor=#000000;strokeWidth=1;fillColor=none;align=center;verticalAlign=middle;" vertex="1" parent="aYrnTMMzMX6QkwAot3Gi-48">
          <mxGeometry x="420" y="12.5" width="120" height="45" as="geometry" />
        </mxCell>
        <mxCell id="aYrnTMMzMX6QkwAot3Gi-35" style="edgeStyle=orthogonalEdgeStyle;rounded=0;orthogonalLoop=1;jettySize=auto;html=1;exitX=1;exitY=0.5;exitDx=0;exitDy=0;entryX=0;entryY=0.5;entryDx=0;entryDy=0;fontColor=#33001A;strokeWidth=2;fillColor=#fff2cc;strokeColor=#d6b656;" edge="1" parent="aYrnTMMzMX6QkwAot3Gi-48" source="aYrnTMMzMX6QkwAot3Gi-34" target="aYrnTMMzMX6QkwAot3Gi-38">
          <mxGeometry relative="1" as="geometry">
            <mxPoint x="280" y="15" as="targetPoint" />
            <Array as="points">
              <mxPoint x="270" y="15" />
              <mxPoint x="270" y="35" />
            </Array>
          </mxGeometry>
        </mxCell>
        <mxCell id="aYrnTMMzMX6QkwAot3Gi-45" value="Send block to peers" style="rounded=0;whiteSpace=wrap;html=1;fontColor=#33001A;strokeColor=#000000;strokeWidth=1;fillColor=none;align=center;verticalAlign=middle;" vertex="1" parent="aYrnTMMzMX6QkwAot3Gi-48">
          <mxGeometry x="420" y="85" width="120" height="30" as="geometry" />
        </mxCell>
        <mxCell id="aYrnTMMzMX6QkwAot3Gi-46" style="edgeStyle=orthogonalEdgeStyle;rounded=0;orthogonalLoop=1;jettySize=auto;html=1;exitX=0.5;exitY=1;exitDx=0;exitDy=0;entryX=0.5;entryY=0;entryDx=0;entryDy=0;fontColor=#33001A;strokeWidth=1;" edge="1" parent="aYrnTMMzMX6QkwAot3Gi-48" source="aYrnTMMzMX6QkwAot3Gi-44" target="aYrnTMMzMX6QkwAot3Gi-45">
          <mxGeometry relative="1" as="geometry" />
        </mxCell>
        <mxCell id="aYrnTMMzMX6QkwAot3Gi-36" style="edgeStyle=orthogonalEdgeStyle;rounded=0;orthogonalLoop=1;jettySize=auto;html=1;exitX=1;exitY=0.5;exitDx=0;exitDy=0;fontColor=#33001A;strokeWidth=2;fillColor=#fff2cc;strokeColor=#d6b656;fontStyle=1" edge="1" parent="aYrnTMMzMX6QkwAot3Gi-48" source="aYrnTMMzMX6QkwAot3Gi-33" target="aYrnTMMzMX6QkwAot3Gi-38">
          <mxGeometry relative="1" as="geometry">
            <mxPoint x="280" y="55" as="targetPoint" />
          </mxGeometry>
        </mxCell>
        <mxCell id="aYrnTMMzMX6QkwAot3Gi-49" value="&lt;b&gt;&lt;font face=&quot;Helvetica&quot; style=&quot;font-size: 24px&quot;&gt;Low Level&lt;/font&gt;&lt;/b&gt;" style="text;html=1;align=center;verticalAlign=middle;resizable=0;points=[];autosize=1;strokeColor=none;fillColor=none;fontFamily=Courier New;fontColor=#33001A;" vertex="1" parent="1">
          <mxGeometry x="175" y="-160" width="130" height="20" as="geometry" />
        </mxCell>
        <mxCell id="aYrnTMMzMX6QkwAot3Gi-50" value="&lt;b&gt;&lt;font face=&quot;Helvetica&quot; style=&quot;font-size: 24px&quot;&gt;Low Level&lt;/font&gt;&lt;/b&gt;" style="text;html=1;align=center;verticalAlign=middle;resizable=0;points=[];autosize=1;strokeColor=none;fillColor=none;fontFamily=Courier New;fontColor=#33001A;" vertex="1" parent="1">
          <mxGeometry x="175" y="-160" width="130" height="20" as="geometry" />
        </mxCell>
        <mxCell id="aYrnTMMzMX6QkwAot3Gi-51" value="&lt;b&gt;&lt;font face=&quot;Helvetica&quot; style=&quot;font-size: 24px&quot;&gt;High Level&lt;/font&gt;&lt;/b&gt;" style="text;html=1;align=center;verticalAlign=middle;resizable=0;points=[];autosize=1;strokeColor=none;fillColor=none;fontFamily=Courier New;fontColor=#33001A;" vertex="1" parent="1">
          <mxGeometry x="-390" y="-160" width="140" height="20" as="geometry" />
        </mxCell>
        <mxCell id="aYrnTMMzMX6QkwAot3Gi-54" value="" style="group" vertex="1" connectable="0" parent="1">
          <mxGeometry x="-40" y="200" width="570" height="230" as="geometry" />
        </mxCell>
        <mxCell id="qR4I749u4LnuO9Lw0ng8-3" value="" style="shape=table;html=1;whiteSpace=wrap;startSize=0;container=1;collapsible=0;childLayout=tableLayout;verticalAlign=top;" parent="aYrnTMMzMX6QkwAot3Gi-54" vertex="1">
          <mxGeometry x="135" width="385" height="80" as="geometry" />
        </mxCell>
        <mxCell id="qR4I749u4LnuO9Lw0ng8-4" value="" style="shape=partialRectangle;html=1;whiteSpace=wrap;collapsible=0;dropTarget=0;pointerEvents=0;fillColor=none;top=0;left=0;bottom=0;right=0;points=[[0,0.5],[1,0.5]];portConstraint=eastwest;" parent="qR4I749u4LnuO9Lw0ng8-3" vertex="1">
          <mxGeometry width="385" height="40" as="geometry" />
        </mxCell>
        <mxCell id="qR4I749u4LnuO9Lw0ng8-5" value="Previous Hash" style="shape=partialRectangle;html=1;whiteSpace=wrap;connectable=0;fillColor=none;top=0;left=0;bottom=0;right=0;overflow=hidden;pointerEvents=1;" parent="qR4I749u4LnuO9Lw0ng8-4" vertex="1">
          <mxGeometry width="96" height="40" as="geometry">
            <mxRectangle width="96" height="40" as="alternateBounds" />
          </mxGeometry>
        </mxCell>
        <mxCell id="qR4I749u4LnuO9Lw0ng8-6" value="Timestamp" style="shape=partialRectangle;html=1;whiteSpace=wrap;connectable=0;fillColor=none;top=0;left=0;bottom=0;right=0;overflow=hidden;pointerEvents=1;" parent="qR4I749u4LnuO9Lw0ng8-4" vertex="1">
          <mxGeometry x="96" width="83" height="40" as="geometry">
            <mxRectangle width="83" height="40" as="alternateBounds" />
          </mxGeometry>
        </mxCell>
        <mxCell id="qR4I749u4LnuO9Lw0ng8-7" value="Nonce" style="shape=partialRectangle;html=1;whiteSpace=wrap;connectable=0;fillColor=none;top=0;left=0;bottom=0;right=0;overflow=hidden;pointerEvents=1;" parent="qR4I749u4LnuO9Lw0ng8-4" vertex="1">
          <mxGeometry x="179" width="84" height="40" as="geometry">
            <mxRectangle width="84" height="40" as="alternateBounds" />
          </mxGeometry>
        </mxCell>
        <mxCell id="qR4I749u4LnuO9Lw0ng8-16" value="Transaction Hash" style="shape=partialRectangle;html=1;whiteSpace=wrap;connectable=0;fillColor=none;top=0;left=0;bottom=0;right=0;overflow=hidden;pointerEvents=1;" parent="qR4I749u4LnuO9Lw0ng8-4" vertex="1">
          <mxGeometry x="263" width="122" height="40" as="geometry">
            <mxRectangle width="122" height="40" as="alternateBounds" />
          </mxGeometry>
        </mxCell>
        <mxCell id="qR4I749u4LnuO9Lw0ng8-8" value="" style="shape=partialRectangle;html=1;whiteSpace=wrap;collapsible=0;dropTarget=0;pointerEvents=0;fillColor=none;top=0;left=0;bottom=0;right=0;points=[[0,0.5],[1,0.5]];portConstraint=eastwest;" parent="qR4I749u4LnuO9Lw0ng8-3" vertex="1">
          <mxGeometry y="40" width="385" height="40" as="geometry" />
        </mxCell>
        <mxCell id="qR4I749u4LnuO9Lw0ng8-9" value="&lt;font color=&quot;#00cc66&quot;&gt;1ZBF&lt;/font&gt;" style="shape=partialRectangle;html=1;whiteSpace=wrap;connectable=0;fillColor=none;top=0;left=0;bottom=0;right=0;overflow=hidden;pointerEvents=1;fontStyle=1" parent="qR4I749u4LnuO9Lw0ng8-8" vertex="1">
          <mxGeometry width="96" height="40" as="geometry">
            <mxRectangle width="96" height="40" as="alternateBounds" />
          </mxGeometry>
        </mxCell>
        <mxCell id="qR4I749u4LnuO9Lw0ng8-10" value="1639862905" style="shape=partialRectangle;html=1;whiteSpace=wrap;connectable=0;fillColor=none;top=0;left=0;bottom=0;right=0;overflow=hidden;pointerEvents=1;fontStyle=1" parent="qR4I749u4LnuO9Lw0ng8-8" vertex="1">
          <mxGeometry x="96" width="83" height="40" as="geometry">
            <mxRectangle width="83" height="40" as="alternateBounds" />
          </mxGeometry>
        </mxCell>
        <mxCell id="qR4I749u4LnuO9Lw0ng8-11" value="&lt;font color=&quot;#cccc00&quot;&gt;AS24&lt;/font&gt;" style="shape=partialRectangle;html=1;whiteSpace=wrap;connectable=0;fillColor=none;top=0;left=0;bottom=0;right=0;overflow=hidden;pointerEvents=1;fontStyle=1" parent="qR4I749u4LnuO9Lw0ng8-8" vertex="1">
          <mxGeometry x="179" width="84" height="40" as="geometry">
            <mxRectangle width="84" height="40" as="alternateBounds" />
          </mxGeometry>
        </mxCell>
        <mxCell id="qR4I749u4LnuO9Lw0ng8-17" value="&lt;font color=&quot;#9999ff&quot;&gt;68Q1&lt;/font&gt;" style="shape=partialRectangle;html=1;whiteSpace=wrap;connectable=0;fillColor=none;top=0;left=0;bottom=0;right=0;overflow=hidden;pointerEvents=1;fontStyle=1" parent="qR4I749u4LnuO9Lw0ng8-8" vertex="1">
          <mxGeometry x="263" width="122" height="40" as="geometry">
            <mxRectangle width="122" height="40" as="alternateBounds" />
          </mxGeometry>
        </mxCell>
        <mxCell id="qR4I749u4LnuO9Lw0ng8-47" value="" style="html=1;whiteSpace=wrap;shape=isoCube2;backgroundOutline=1;isoAngle=11.5;align=left;verticalAlign=top;strokeWidth=2;fillColor=#dae8fc;strokeColor=#6c8ebf;" parent="aYrnTMMzMX6QkwAot3Gi-54" vertex="1">
          <mxGeometry width="80" height="80" as="geometry" />
        </mxCell>
        <mxCell id="aYrnTMMzMX6QkwAot3Gi-1" value="&lt;font color=&quot;#33001a&quot; style=&quot;font-size: 24px&quot;&gt;=&lt;/font&gt;" style="text;html=1;align=center;verticalAlign=middle;resizable=0;points=[];autosize=1;strokeColor=none;fillColor=none;fontColor=#00CC66;" vertex="1" parent="aYrnTMMzMX6QkwAot3Gi-54">
          <mxGeometry x="90" y="30" width="30" height="20" as="geometry" />
        </mxCell>
        <mxCell id="aYrnTMMzMX6QkwAot3Gi-25" style="edgeStyle=none;rounded=0;orthogonalLoop=1;jettySize=auto;html=1;exitX=0.5;exitY=0;exitDx=0;exitDy=0;fontColor=#33001A;strokeWidth=1;entryX=0.754;entryY=1.025;entryDx=0;entryDy=0;entryPerimeter=0;" edge="1" parent="aYrnTMMzMX6QkwAot3Gi-54" source="aYrnTMMzMX6QkwAot3Gi-4" target="qR4I749u4LnuO9Lw0ng8-8">
          <mxGeometry relative="1" as="geometry">
            <mxPoint x="456" y="80" as="targetPoint" />
          </mxGeometry>
        </mxCell>
        <mxCell id="aYrnTMMzMX6QkwAot3Gi-4" value="&lt;font color=&quot;#000000&quot;&gt;Hash01&lt;/font&gt;" style="rounded=1;whiteSpace=wrap;html=1;fontColor=#00CC66;strokeColor=#000000;strokeWidth=1;fillColor=none;align=center;verticalAlign=middle;" vertex="1" parent="aYrnTMMzMX6QkwAot3Gi-54">
          <mxGeometry x="400" y="100" width="50" height="30" as="geometry" />
        </mxCell>
        <mxCell id="aYrnTMMzMX6QkwAot3Gi-26" style="edgeStyle=none;rounded=0;orthogonalLoop=1;jettySize=auto;html=1;exitX=0.5;exitY=0;exitDx=0;exitDy=0;fontColor=#33001A;strokeWidth=1;entryX=0.908;entryY=0.982;entryDx=0;entryDy=0;entryPerimeter=0;" edge="1" parent="aYrnTMMzMX6QkwAot3Gi-54" source="aYrnTMMzMX6QkwAot3Gi-6" target="qR4I749u4LnuO9Lw0ng8-8">
          <mxGeometry relative="1" as="geometry">
            <mxPoint x="460" y="80" as="targetPoint" />
          </mxGeometry>
        </mxCell>
        <mxCell id="aYrnTMMzMX6QkwAot3Gi-6" value="&lt;font color=&quot;#000000&quot;&gt;Hash23&lt;/font&gt;" style="rounded=1;whiteSpace=wrap;html=1;fontColor=#00CC66;strokeColor=#000000;strokeWidth=1;fillColor=none;align=center;verticalAlign=middle;" vertex="1" parent="aYrnTMMzMX6QkwAot3Gi-54">
          <mxGeometry x="460" y="100" width="50" height="30" as="geometry" />
        </mxCell>
        <mxCell id="aYrnTMMzMX6QkwAot3Gi-17" style="edgeStyle=none;rounded=0;orthogonalLoop=1;jettySize=auto;html=1;exitX=0.5;exitY=0;exitDx=0;exitDy=0;entryX=0;entryY=1;entryDx=0;entryDy=0;fontColor=#33001A;strokeWidth=1;" edge="1" parent="aYrnTMMzMX6QkwAot3Gi-54" source="aYrnTMMzMX6QkwAot3Gi-7" target="aYrnTMMzMX6QkwAot3Gi-4">
          <mxGeometry relative="1" as="geometry" />
        </mxCell>
        <mxCell id="aYrnTMMzMX6QkwAot3Gi-7" value="&lt;font color=&quot;#000000&quot;&gt;Hash0&lt;/font&gt;" style="rounded=1;whiteSpace=wrap;html=1;fontColor=#00CC66;strokeColor=#000000;strokeWidth=1;fillColor=none;align=center;verticalAlign=middle;" vertex="1" parent="aYrnTMMzMX6QkwAot3Gi-54">
          <mxGeometry x="340" y="150" width="50" height="30" as="geometry" />
        </mxCell>
        <mxCell id="aYrnTMMzMX6QkwAot3Gi-24" value="" style="edgeStyle=none;rounded=0;orthogonalLoop=1;jettySize=auto;html=1;fontColor=#33001A;strokeWidth=1;" edge="1" parent="aYrnTMMzMX6QkwAot3Gi-54" source="aYrnTMMzMX6QkwAot3Gi-8" target="aYrnTMMzMX6QkwAot3Gi-4">
          <mxGeometry relative="1" as="geometry" />
        </mxCell>
        <mxCell id="aYrnTMMzMX6QkwAot3Gi-8" value="&lt;font color=&quot;#000000&quot;&gt;Hash1&lt;/font&gt;" style="rounded=1;whiteSpace=wrap;html=1;fontColor=#00CC66;strokeColor=#000000;strokeWidth=1;fillColor=none;align=center;verticalAlign=middle;" vertex="1" parent="aYrnTMMzMX6QkwAot3Gi-54">
          <mxGeometry x="400" y="150" width="50" height="30" as="geometry" />
        </mxCell>
        <mxCell id="aYrnTMMzMX6QkwAot3Gi-22" value="" style="edgeStyle=none;rounded=0;orthogonalLoop=1;jettySize=auto;html=1;fontColor=#33001A;strokeWidth=1;" edge="1" parent="aYrnTMMzMX6QkwAot3Gi-54" source="aYrnTMMzMX6QkwAot3Gi-9" target="aYrnTMMzMX6QkwAot3Gi-6">
          <mxGeometry relative="1" as="geometry" />
        </mxCell>
        <mxCell id="aYrnTMMzMX6QkwAot3Gi-9" value="&lt;font color=&quot;#000000&quot;&gt;Hash2&lt;/font&gt;" style="rounded=1;whiteSpace=wrap;html=1;fontColor=#00CC66;strokeColor=#000000;strokeWidth=1;fillColor=none;align=center;verticalAlign=middle;" vertex="1" parent="aYrnTMMzMX6QkwAot3Gi-54">
          <mxGeometry x="460" y="150" width="50" height="30" as="geometry" />
        </mxCell>
        <mxCell id="aYrnTMMzMX6QkwAot3Gi-23" value="" style="edgeStyle=none;rounded=0;orthogonalLoop=1;jettySize=auto;html=1;fontColor=#33001A;strokeWidth=1;entryX=1;entryY=1;entryDx=0;entryDy=0;" edge="1" parent="aYrnTMMzMX6QkwAot3Gi-54" source="aYrnTMMzMX6QkwAot3Gi-10" target="aYrnTMMzMX6QkwAot3Gi-6">
          <mxGeometry relative="1" as="geometry" />
        </mxCell>
        <mxCell id="aYrnTMMzMX6QkwAot3Gi-10" value="&lt;font color=&quot;#000000&quot;&gt;Hash3&lt;/font&gt;" style="rounded=1;whiteSpace=wrap;html=1;fontColor=#00CC66;strokeColor=#000000;strokeWidth=1;fillColor=none;align=center;verticalAlign=middle;" vertex="1" parent="aYrnTMMzMX6QkwAot3Gi-54">
          <mxGeometry x="520" y="150" width="50" height="30" as="geometry" />
        </mxCell>
        <mxCell id="aYrnTMMzMX6QkwAot3Gi-18" style="edgeStyle=none;rounded=0;orthogonalLoop=1;jettySize=auto;html=1;exitX=0.5;exitY=0;exitDx=0;exitDy=0;entryX=0.5;entryY=1;entryDx=0;entryDy=0;fontColor=#33001A;strokeWidth=1;" edge="1" parent="aYrnTMMzMX6QkwAot3Gi-54" source="aYrnTMMzMX6QkwAot3Gi-11" target="aYrnTMMzMX6QkwAot3Gi-7">
          <mxGeometry relative="1" as="geometry" />
        </mxCell>
        <mxCell id="aYrnTMMzMX6QkwAot3Gi-11" value="&lt;font color=&quot;#000000&quot;&gt;T0&lt;/font&gt;" style="rounded=1;whiteSpace=wrap;html=1;fontColor=#00CC66;strokeColor=#000000;strokeWidth=1;fillColor=none;align=center;verticalAlign=middle;" vertex="1" parent="aYrnTMMzMX6QkwAot3Gi-54">
          <mxGeometry x="340" y="200" width="50" height="30" as="geometry" />
        </mxCell>
        <mxCell id="aYrnTMMzMX6QkwAot3Gi-19" style="edgeStyle=none;rounded=0;orthogonalLoop=1;jettySize=auto;html=1;exitX=0.5;exitY=0;exitDx=0;exitDy=0;fontColor=#33001A;strokeWidth=1;" edge="1" parent="aYrnTMMzMX6QkwAot3Gi-54" source="aYrnTMMzMX6QkwAot3Gi-12" target="aYrnTMMzMX6QkwAot3Gi-8">
          <mxGeometry relative="1" as="geometry" />
        </mxCell>
        <mxCell id="aYrnTMMzMX6QkwAot3Gi-12" value="&lt;font color=&quot;#000000&quot;&gt;T1&lt;/font&gt;" style="rounded=1;whiteSpace=wrap;html=1;fontColor=#00CC66;strokeColor=#000000;strokeWidth=1;fillColor=none;align=center;verticalAlign=middle;" vertex="1" parent="aYrnTMMzMX6QkwAot3Gi-54">
          <mxGeometry x="400" y="200" width="50" height="30" as="geometry" />
        </mxCell>
        <mxCell id="aYrnTMMzMX6QkwAot3Gi-20" style="edgeStyle=none;rounded=0;orthogonalLoop=1;jettySize=auto;html=1;exitX=0.5;exitY=0;exitDx=0;exitDy=0;entryX=0.5;entryY=1;entryDx=0;entryDy=0;fontColor=#33001A;strokeWidth=1;" edge="1" parent="aYrnTMMzMX6QkwAot3Gi-54" source="aYrnTMMzMX6QkwAot3Gi-13" target="aYrnTMMzMX6QkwAot3Gi-9">
          <mxGeometry relative="1" as="geometry" />
        </mxCell>
        <mxCell id="aYrnTMMzMX6QkwAot3Gi-13" value="&lt;font color=&quot;#000000&quot;&gt;T2&lt;/font&gt;" style="rounded=1;whiteSpace=wrap;html=1;fontColor=#00CC66;strokeColor=#000000;strokeWidth=1;fillColor=none;align=center;verticalAlign=middle;" vertex="1" parent="aYrnTMMzMX6QkwAot3Gi-54">
          <mxGeometry x="460" y="200" width="50" height="30" as="geometry" />
        </mxCell>
        <mxCell id="aYrnTMMzMX6QkwAot3Gi-21" value="" style="edgeStyle=none;rounded=0;orthogonalLoop=1;jettySize=auto;html=1;fontColor=#33001A;strokeWidth=1;" edge="1" parent="aYrnTMMzMX6QkwAot3Gi-54" source="aYrnTMMzMX6QkwAot3Gi-14" target="aYrnTMMzMX6QkwAot3Gi-10">
          <mxGeometry relative="1" as="geometry" />
        </mxCell>
        <mxCell id="aYrnTMMzMX6QkwAot3Gi-14" value="&lt;font color=&quot;#000000&quot;&gt;T3&lt;/font&gt;" style="rounded=1;whiteSpace=wrap;html=1;fontColor=#00CC66;strokeColor=#000000;strokeWidth=1;fillColor=none;align=center;verticalAlign=middle;" vertex="1" parent="aYrnTMMzMX6QkwAot3Gi-54">
          <mxGeometry x="520" y="200" width="50" height="30" as="geometry" />
        </mxCell>
        <mxCell id="aYrnTMMzMX6QkwAot3Gi-27" value="Multiple Transactions" style="text;html=1;align=center;verticalAlign=middle;resizable=0;points=[];autosize=1;strokeColor=none;fillColor=none;fontColor=#33001A;" vertex="1" parent="aYrnTMMzMX6QkwAot3Gi-54">
          <mxGeometry x="200" y="205" width="130" height="20" as="geometry" />
        </mxCell>
        <mxCell id="aYrnTMMzMX6QkwAot3Gi-60" value="" style="html=1;whiteSpace=wrap;shape=isoCube2;backgroundOutline=1;isoAngle=11.5;align=left;verticalAlign=top;fillColor=#ffe6cc;strokeColor=#d79b00;strokeWidth=2;" vertex="1" parent="1">
          <mxGeometry x="-520" y="-24" width="80" height="80" as="geometry" />
        </mxCell>
        <mxCell id="aYrnTMMzMX6QkwAot3Gi-63" value="" style="html=1;whiteSpace=wrap;shape=isoCube2;backgroundOutline=1;isoAngle=11.5;align=left;verticalAlign=top;fillColor=#dae8fc;strokeColor=#6c8ebf;strokeWidth=2;" vertex="1" parent="1">
          <mxGeometry x="-360" y="-24" width="80" height="80" as="geometry" />
        </mxCell>
        <mxCell id="aYrnTMMzMX6QkwAot3Gi-64" style="edgeStyle=orthogonalEdgeStyle;rounded=0;orthogonalLoop=1;jettySize=auto;html=1;exitX=1;exitY=0.5;exitDx=0;exitDy=0;exitPerimeter=0;entryX=0;entryY=0.5;entryDx=0;entryDy=0;entryPerimeter=0;strokeWidth=2;" edge="1" parent="1" source="aYrnTMMzMX6QkwAot3Gi-60" target="aYrnTMMzMX6QkwAot3Gi-63">
          <mxGeometry x="-550" y="-24" as="geometry" />
        </mxCell>
        <mxCell id="aYrnTMMzMX6QkwAot3Gi-65" value="" style="html=1;whiteSpace=wrap;shape=isoCube2;backgroundOutline=1;isoAngle=11.5;align=left;verticalAlign=top;fillColor=#f8cecc;strokeColor=#b85450;strokeWidth=2;" vertex="1" parent="1">
          <mxGeometry x="-200" y="-24" width="80" height="80" as="geometry" />
        </mxCell>
        <mxCell id="aYrnTMMzMX6QkwAot3Gi-66" style="edgeStyle=orthogonalEdgeStyle;rounded=0;orthogonalLoop=1;jettySize=auto;html=1;exitX=1;exitY=0.5;exitDx=0;exitDy=0;exitPerimeter=0;entryX=0;entryY=0.5;entryDx=0;entryDy=0;entryPerimeter=0;strokeWidth=2;" edge="1" parent="1" source="aYrnTMMzMX6QkwAot3Gi-63" target="aYrnTMMzMX6QkwAot3Gi-65">
          <mxGeometry x="-550" y="-24" as="geometry" />
        </mxCell>
        <mxCell id="aYrnTMMzMX6QkwAot3Gi-77" value="&lt;font color=&quot;#33001a&quot;&gt;&lt;b&gt;The Structure of a Blockchain&lt;/b&gt;&lt;/font&gt;" style="text;html=1;align=center;verticalAlign=middle;resizable=0;points=[];autosize=1;strokeColor=none;fillColor=none;fontColor=#00CC66;" vertex="1" parent="1">
          <mxGeometry x="-148" y="-91" width="190" height="20" as="geometry" />
        </mxCell>
        <mxCell id="aYrnTMMzMX6QkwAot3Gi-78" value="&lt;font style=&quot;font-size: 10px;&quot;&gt;Transaction 1&lt;br style=&quot;font-size: 10px;&quot;&gt;Transaction 2&lt;br style=&quot;font-size: 10px;&quot;&gt;.&lt;br style=&quot;font-size: 10px;&quot;&gt;.&lt;br style=&quot;font-size: 10px;&quot;&gt;.&lt;/font&gt;" style="text;html=1;align=center;verticalAlign=middle;resizable=0;points=[];autosize=1;strokeColor=none;fillColor=none;fontFamily=Courier New;fontColor=#33001A;fontSize=10;spacing=0;" vertex="1" parent="1">
          <mxGeometry x="-525" y="75" width="90" height="70" as="geometry" />
        </mxCell>
        <mxCell id="aYrnTMMzMX6QkwAot3Gi-81" value="&lt;font style=&quot;font-size: 10px;&quot;&gt;Transaction 1&lt;br style=&quot;font-size: 10px;&quot;&gt;Transaction 2&lt;br style=&quot;font-size: 10px;&quot;&gt;.&lt;br style=&quot;font-size: 10px;&quot;&gt;.&lt;br style=&quot;font-size: 10px;&quot;&gt;.&lt;/font&gt;" style="text;html=1;align=center;verticalAlign=middle;resizable=0;points=[];autosize=1;strokeColor=none;fillColor=none;fontFamily=Courier New;fontColor=#33001A;fontSize=10;spacing=0;" vertex="1" parent="1">
          <mxGeometry x="-365" y="75" width="90" height="70" as="geometry" />
        </mxCell>
        <mxCell id="aYrnTMMzMX6QkwAot3Gi-82" value="&lt;font style=&quot;font-size: 10px;&quot;&gt;Transaction 1&lt;br style=&quot;font-size: 10px;&quot;&gt;Transaction 2&lt;br style=&quot;font-size: 10px;&quot;&gt;.&lt;br style=&quot;font-size: 10px;&quot;&gt;.&lt;br style=&quot;font-size: 10px;&quot;&gt;.&lt;/font&gt;" style="text;html=1;align=center;verticalAlign=middle;resizable=0;points=[];autosize=1;strokeColor=none;fillColor=none;fontFamily=Courier New;fontColor=#33001A;fontSize=10;spacing=0;" vertex="1" parent="1">
          <mxGeometry x="-205" y="75" width="90" height="70" as="geometry" />
        </mxCell>
        <mxCell id="aYrnTMMzMX6QkwAot3Gi-84" value="" style="group" vertex="1" connectable="0" parent="1">
          <mxGeometry x="10" y="-24" width="470" height="165" as="geometry" />
        </mxCell>
        <mxCell id="qR4I749u4LnuO9Lw0ng8-40" value="" style="ellipse;whiteSpace=wrap;html=1;strokeWidth=1;align=left;verticalAlign=top;dashed=1;fillColor=none;strokeColor=#d79b00;fontStyle=1" parent="aYrnTMMzMX6QkwAot3Gi-84" vertex="1">
          <mxGeometry x="91" y="100" width="50" height="30" as="geometry" />
        </mxCell>
        <mxCell id="qR4I749u4LnuO9Lw0ng8-41" value="" style="ellipse;whiteSpace=wrap;html=1;strokeWidth=1;align=left;verticalAlign=top;dashed=1;fillColor=none;strokeColor=#6c8ebf;fontStyle=1" parent="aYrnTMMzMX6QkwAot3Gi-84" vertex="1">
          <mxGeometry x="250" y="100" width="50" height="30" as="geometry" />
        </mxCell>
        <mxCell id="qR4I749u4LnuO9Lw0ng8-20" value="Hash" style="text;html=1;align=left;verticalAlign=middle;resizable=0;points=[];autosize=1;strokeColor=none;fillColor=none;fontStyle=0" parent="aYrnTMMzMX6QkwAot3Gi-84" vertex="1">
          <mxGeometry y="105" width="40" height="20" as="geometry" />
        </mxCell>
        <mxCell id="qR4I749u4LnuO9Lw0ng8-21" value="Previous Hash" style="text;html=1;align=left;verticalAlign=middle;resizable=0;points=[];autosize=1;strokeColor=none;fillColor=none;fontStyle=0" parent="aYrnTMMzMX6QkwAot3Gi-84" vertex="1">
          <mxGeometry y="145" width="90" height="20" as="geometry" />
        </mxCell>
        <mxCell id="qR4I749u4LnuO9Lw0ng8-22" value="" style="html=1;whiteSpace=wrap;shape=isoCube2;backgroundOutline=1;isoAngle=11.5;align=left;verticalAlign=top;fillColor=#ffe6cc;strokeColor=#d79b00;strokeWidth=2;" parent="aYrnTMMzMX6QkwAot3Gi-84" vertex="1">
          <mxGeometry x="30" width="80" height="80" as="geometry" />
        </mxCell>
        <mxCell id="qR4I749u4LnuO9Lw0ng8-23" value="1Z8F" style="text;html=1;align=left;verticalAlign=middle;resizable=0;points=[];autosize=1;strokeColor=none;fillColor=none;fontStyle=1;fontColor=#00CC66;" parent="aYrnTMMzMX6QkwAot3Gi-84" vertex="1">
          <mxGeometry x="100" y="105" width="40" height="20" as="geometry" />
        </mxCell>
        <mxCell id="qR4I749u4LnuO9Lw0ng8-24" value="0000" style="text;html=1;align=left;verticalAlign=middle;resizable=0;points=[];autosize=1;strokeColor=none;fillColor=none;fontStyle=1" parent="aYrnTMMzMX6QkwAot3Gi-84" vertex="1">
          <mxGeometry x="100" y="145" width="40" height="20" as="geometry" />
        </mxCell>
        <mxCell id="qR4I749u4LnuO9Lw0ng8-25" value="" style="html=1;whiteSpace=wrap;shape=isoCube2;backgroundOutline=1;isoAngle=11.5;align=left;verticalAlign=top;fillColor=#dae8fc;strokeColor=#6c8ebf;strokeWidth=2;" parent="aYrnTMMzMX6QkwAot3Gi-84" vertex="1">
          <mxGeometry x="190" width="80" height="80" as="geometry" />
        </mxCell>
        <mxCell id="qR4I749u4LnuO9Lw0ng8-27" style="edgeStyle=orthogonalEdgeStyle;rounded=0;orthogonalLoop=1;jettySize=auto;html=1;exitX=1;exitY=0.5;exitDx=0;exitDy=0;exitPerimeter=0;entryX=0;entryY=0.5;entryDx=0;entryDy=0;entryPerimeter=0;strokeWidth=2;" parent="aYrnTMMzMX6QkwAot3Gi-84" source="qR4I749u4LnuO9Lw0ng8-22" target="qR4I749u4LnuO9Lw0ng8-25" edge="1">
          <mxGeometry as="geometry" />
        </mxCell>
        <mxCell id="qR4I749u4LnuO9Lw0ng8-26" value="" style="html=1;whiteSpace=wrap;shape=isoCube2;backgroundOutline=1;isoAngle=11.5;align=left;verticalAlign=top;fillColor=#f8cecc;strokeColor=#b85450;strokeWidth=2;" parent="aYrnTMMzMX6QkwAot3Gi-84" vertex="1">
          <mxGeometry x="350" width="80" height="80" as="geometry" />
        </mxCell>
        <mxCell id="qR4I749u4LnuO9Lw0ng8-28" style="edgeStyle=orthogonalEdgeStyle;rounded=0;orthogonalLoop=1;jettySize=auto;html=1;exitX=1;exitY=0.5;exitDx=0;exitDy=0;exitPerimeter=0;entryX=0;entryY=0.5;entryDx=0;entryDy=0;entryPerimeter=0;strokeWidth=2;" parent="aYrnTMMzMX6QkwAot3Gi-84" source="qR4I749u4LnuO9Lw0ng8-25" target="qR4I749u4LnuO9Lw0ng8-26" edge="1">
          <mxGeometry as="geometry" />
        </mxCell>
        <mxCell id="qR4I749u4LnuO9Lw0ng8-29" value="Hash" style="text;html=1;align=left;verticalAlign=middle;resizable=0;points=[];autosize=1;strokeColor=none;fillColor=none;fontStyle=0" parent="aYrnTMMzMX6QkwAot3Gi-84" vertex="1">
          <mxGeometry x="160" y="105" width="40" height="20" as="geometry" />
        </mxCell>
        <mxCell id="qR4I749u4LnuO9Lw0ng8-37" value="" style="rounded=0;orthogonalLoop=1;jettySize=auto;html=1;entryX=1.025;entryY=1.007;entryDx=0;entryDy=0;entryPerimeter=0;exitX=-0.032;exitY=0.021;exitDx=0;exitDy=0;exitPerimeter=0;dashed=1;fillColor=#ffe6cc;strokeColor=#d79b00;strokeWidth=1;" parent="aYrnTMMzMX6QkwAot3Gi-84" source="qR4I749u4LnuO9Lw0ng8-32" target="qR4I749u4LnuO9Lw0ng8-23" edge="1">
          <mxGeometry as="geometry" />
        </mxCell>
        <mxCell id="qR4I749u4LnuO9Lw0ng8-30" value="Previous Hash" style="text;html=1;align=left;verticalAlign=middle;resizable=0;points=[];autosize=1;strokeColor=none;fillColor=none;fontStyle=0;dashed=1;" parent="aYrnTMMzMX6QkwAot3Gi-84" vertex="1">
          <mxGeometry x="160" y="145" width="90" height="20" as="geometry" />
        </mxCell>
        <mxCell id="qR4I749u4LnuO9Lw0ng8-31" value="68Q1" style="text;html=1;align=left;verticalAlign=middle;resizable=0;points=[];autosize=1;strokeColor=none;fillColor=none;fontStyle=1;fontColor=#9999FF;" parent="aYrnTMMzMX6QkwAot3Gi-84" vertex="1">
          <mxGeometry x="260" y="105" width="40" height="20" as="geometry" />
        </mxCell>
        <mxCell id="qR4I749u4LnuO9Lw0ng8-32" value="1Z8F" style="text;html=1;align=left;verticalAlign=middle;resizable=0;points=[];autosize=1;strokeColor=none;fillColor=none;fontStyle=1;fontColor=#00CC66;" parent="aYrnTMMzMX6QkwAot3Gi-84" vertex="1">
          <mxGeometry x="260" y="145" width="40" height="20" as="geometry" />
        </mxCell>
        <mxCell id="qR4I749u4LnuO9Lw0ng8-33" value="Hash" style="text;html=1;align=left;verticalAlign=middle;resizable=0;points=[];autosize=1;strokeColor=none;fillColor=none;fontStyle=0" parent="aYrnTMMzMX6QkwAot3Gi-84" vertex="1">
          <mxGeometry x="320" y="105" width="40" height="20" as="geometry" />
        </mxCell>
        <mxCell id="qR4I749u4LnuO9Lw0ng8-38" value="" style="edgeStyle=none;rounded=0;orthogonalLoop=1;jettySize=auto;html=1;entryX=1.039;entryY=1.022;entryDx=0;entryDy=0;entryPerimeter=0;exitX=-0.018;exitY=-0.007;exitDx=0;exitDy=0;exitPerimeter=0;dashed=1;fillColor=#dae8fc;strokeColor=#6c8ebf;strokeWidth=1;" parent="aYrnTMMzMX6QkwAot3Gi-84" source="qR4I749u4LnuO9Lw0ng8-36" target="qR4I749u4LnuO9Lw0ng8-31" edge="1">
          <mxGeometry as="geometry" />
        </mxCell>
        <mxCell id="qR4I749u4LnuO9Lw0ng8-34" value="Previous Hash" style="text;html=1;align=left;verticalAlign=middle;resizable=0;points=[];autosize=1;strokeColor=none;fillColor=none;fontStyle=0" parent="aYrnTMMzMX6QkwAot3Gi-84" vertex="1">
          <mxGeometry x="320" y="145" width="90" height="20" as="geometry" />
        </mxCell>
        <mxCell id="qR4I749u4LnuO9Lw0ng8-35" value="3H4Q" style="text;html=1;align=left;verticalAlign=middle;resizable=0;points=[];autosize=1;strokeColor=none;fillColor=none;fontStyle=1" parent="aYrnTMMzMX6QkwAot3Gi-84" vertex="1">
          <mxGeometry x="420" y="105" width="50" height="20" as="geometry" />
        </mxCell>
        <mxCell id="qR4I749u4LnuO9Lw0ng8-36" value="68Q1" style="text;html=1;align=left;verticalAlign=middle;resizable=0;points=[];autosize=1;strokeColor=none;fillColor=none;fontStyle=1;fontColor=#9999FF;" parent="aYrnTMMzMX6QkwAot3Gi-84" vertex="1">
          <mxGeometry x="420" y="145" width="40" height="20" as="geometry" />
        </mxCell>
      </root>
    </mxGraphModel>
  </diagram>
</mxfile>
